<?xml version="1.0" encoding="UTF-8"?>
<svg id="Camada_1" xmlns="http://www.w3.org/2000/svg" version="1.1" viewBox="0 0 1080 1080">
  <!-- Generator: Adobe Illustrator 29.7.1, SVG Export Plug-In . SVG Version: 2.1.1 Build 8)  -->
  <defs>
    <style>
      .st0 {
        fill: #c69c6b;
      }
    </style>
  </defs>
  <polygon class="st0" points="466.21 206.39 466.21 438.53 303.29 601.46 227.59 525.77 426.57 326.79 426.57 248.22 140 534.78 301.77 696.53 525.97 472.33 525.97 145.83 466.21 206.39"/>
  <polygon class="st0" points="555.61 145.83 555.61 470.25 661.59 576.23 781.98 455.82 858.4 532.24 779.1 611.54 743.77 576.23 704.84 615.15 782.65 692.97 940 535.63 788.65 384.28 669.52 503.4 606.79 440.69 606.79 285.69 708.09 386.98 750.48 344.6 555.61 145.83"/>
  <polygon class="st0" points="363.85 672.1 321.31 714.64 540.84 934.17 760 715.01 675.28 630.3 634.91 670.67 678.88 714.64 540.22 853.33 363.85 672.1"/>
</svg>