<?xml version="1.0" encoding="UTF-8"?>
<svg id="Camada_1" xmlns="http://www.w3.org/2000/svg" version="1.1" viewBox="0 0 1080 1080">
  <!-- Generator: Adobe Illustrator 29.7.1, SVG Export Plug-In . SVG Version: 2.1.1 Build 8)  -->
  <defs>
    <style>
      .st0 {
        fill: #c69c6b;
      }
    </style>
  </defs>
  <path class="st0" d="M656.04,125.54c.16.07.27,1.25.8,1.49,71.14,33.11,140.39,65.59,211.57,98.64,14.85,9.15,8.19,25.89,9.37,40.31,43.18-.27,80.58,33.92,84.45,76.89v313.08c-1.27,21.89-6.86,42.87-20.78,60.1l-147.59,189.17c-4.46,34.97,14.58,90.77-35.18,98.48-52.26-3.16-109.27,4.09-160.96,0-18.19-1.45-34.25-13.33-36.45-32.14,1.74-42.54-2.35-86.96-.04-129.28,1.25-22.95,7.66-45.64,14.97-67.23l-25.45,15.44c-17.42,9.11-31.75-8.77-46.63-15.44,7.44,21.94,13.77,44.79,14.97,68.11,2.17,42.12-1.7,86.09-.04,128.4-2.27,18.87-17.61,29.91-35.62,32.09l-161.8.04c-49.75-7.79-30.73-63.45-35.18-98.48l-150.22-192.69c-8.34-11.47-13.45-24.46-16.12-38.4-4.61-109.86-.66-220.32-2.04-330.41,3.19-43.22,41.11-78.1,84.45-77.77,1.15-14.78-5.37-30.57,9.37-40.31l320.75-149.66c4.86-1.36,10.94-1.4,15.68.25,35.61,17.01,71.95,33.88,107.75,49.28h-.01ZM808.31,245.74c-3.53-2.61-8.3-4.66-12.33-6.57-84.85-40.34-170.62-78.8-255.56-118.97-85.53,40.31-172.11,78.62-257.36,119.51-3.62,1.73-8.05,3.53-11.12,6.02l267.88,142.26,28.45-14.29,240.01-127.96h.01ZM244.7,280.05v269.05c25.18-13.17,56.77-14.22,80.64,2.45,6.39,4.46,11.97,10.41,17.4,16,29.66,30.54,64.29,66.12,91.45,98.48,8.1,9.67,14.13,20.83,22.38,30.38l62.46,37.33v-307.3l-274.33-146.39h0ZM835.57,280.05l-274.33,146.39v307.3c17.95-11.25,36.88-21.18,54.72-32.58,2.41-1.54,5.68-3.04,7.74-4.77,6.91-5.8,16.3-23.01,23.26-31.25,27.22-32.2,61-67.17,90.56-97.59,7.13-7.34,14.23-14.81,23.29-19.78,23.04-12.64,51.95-10.67,74.75,1.33v-269.05h0ZM329.11,892.46v69.03h147.72c-2.42-58.84,7.75-120.81-13.4-176.95-9.8-26.01-26.56-51.33-44.64-72.3-36.96-42.88-79.68-82.87-117.36-125.31-29.2-21.74-67.21,9.3-51.76,42.09,32.3,45.97,68.3,89.37,99.97,135.68,5.12,26.26-22.63,38.63-39.83,17.66-28.82-35.18-58.74-77.63-85.49-114.83-15.94-22.19-19.41-33.75-21.86-61.63l.04-296.79c-19.77.12-37.13,13.77-41.1,33.2-.5,97.74-3.54,196.6-.19,294.29.56,16.52-1.76,35.37,8.4,49.63,1.85,2.6,4.96,4.89,6.52,6.91,48.74,62.83,97.21,125.89,146.29,188.45,1.76,2.47,6.21,8.25,6.69,10.89h-.01ZM603.44,961.47h147.72v-69.03c0-1.14,4.71-8.5,5.79-10.04,49.48-62.78,98.37-126.02,147.18-189.34,1.52-1.98,4.71-4.28,6.54-6.89,10.17-14.56,7.82-33.73,8.4-50.51,3.28-97.41.37-195.96-.19-293.41-3.99-19.43-21.33-33.08-41.1-33.2l.04,296.79c-3.51,19.41-3.23,34.4-14.27,51.67-27.75,43.46-66.94,84.3-95.7,127.63-18.98,20.71-49.7-3.44-33.75-26.7l95.77-128.44c17.37-33.05-21.69-65.17-51.02-43.1-37.69,42.47-80.41,82.44-117.36,125.31-36.51,42.34-55.9,86.76-58.09,143.26-1.36,35,1.09,70.9.03,105.99h0Z"/>
</svg>