<?xml version="1.0" encoding="UTF-8"?>
<svg id="Camada_1" xmlns="http://www.w3.org/2000/svg" version="1.1" viewBox="0 0 1080 1080">
  <!-- Generator: Adobe Illustrator 29.7.1, SVG Export Plug-In . SVG Version: 2.1.1 Build 8)  -->
  <defs>
    <style>
      .st0 {
        fill: #c69c6b;
      }
    </style>
  </defs>
  <path class="st0" d="M873.32,93.52l20.59,333.32,45.25-22.63v549.36h65.84v32.92H75v-32.92h65.84v-394.01l288.05-155.34v135.79l255.13-135.79v135.79l26.84-13.71,28.71-432.76h133.74v-.03h0ZM840.4,126.46h-67.9l-4.12,45.26h74.08l-2.05-45.26h-.01ZM844.51,206.69h-78.18l-20.55,300.4,114.86-63.08-16.12-237.33h-.01ZM395.97,461.83l-220.16,118.3v373.45h728.37v-491.75l-253.08,133.74v-133.74l-255.13,133.74v-133.74h0Z"/>
  <path class="st0" d="M616.13,657.29v152.25h-152.25v-152.25h152.25ZM581.16,692.26h-82.3v84.36h82.3v-84.36Z"/>
  <path class="st0" d="M400.09,657.29v152.25h-152.25v-152.25h152.25ZM367.17,692.26h-84.36v84.36h84.36v-84.36h0Z"/>
  <path class="st0" d="M832.17,657.29v152.25h-152.25v-152.25h152.25ZM797.2,692.26h-84.36v84.36h84.36v-84.36Z"/>
</svg>