<?xml version="1.0" encoding="UTF-8"?>
<svg id="Camada_1" xmlns="http://www.w3.org/2000/svg" version="1.1" viewBox="0 0 1080 1080">
  <!-- Generator: Adobe Illustrator 29.7.1, SVG Export Plug-In . SVG Version: 2.1.1 Build 8)  -->
  <defs>
    <style>
      .st0 {
        fill: #cca546;
      }
    </style>
  </defs>
  <g>
    <path class="st0" d="M254.4,1046.63v-214.28h98.35c.49,0,7.42,1.35,9.51,1.68,65.59,10.39,78.6,67.29,74.5,125.5-2.47,35.17-21.02,70.05-55.96,81.57-2.64.87-21.95,5.53-23.26,5.53h-103.15ZM299.18,1003.46c2.51.25,4.44,1.45,7.13,1.67,37.76,3.2,83.07-2.79,87.27-48.79,2.6-28.33.33-64.04-29.99-75.65-3.1-1.19-14.97-5.15-17.24-5.15h-47.17v127.93h0Z"/>
    <path class="st0" d="M736.92,832.74c22.25-2.61,50.67,2.25,69.74,14.23,2.64,1.65,14.93,11.5,15.37,13.49.44,1.94-1.31,2.7-2.34,3.88-2.7,3.1-22.56,23.37-24.19,23.85-4,1.16-6.3-3.93-9.63-6.04-13.9-8.75-31.44-11.9-47.41-7.88-14.55,3.66-28.41,19.19-15.58,32.49,10.2,10.58,40.21,11.64,54.48,15.88,10.26,3.05,30.1,14.15,36.73,22.44,14.19,17.77,15.6,50.85,2.34,69.52-30.87,43.43-107.82,40.28-146.17,8.75-4.82-3.96-8.91-6.35-4.11-11.92,2.64-3.06,22.48-23.55,24.13-23.92,2.44-.53,4.85,3.96,7.12,5.49,16.47,11.16,35.31,15.49,55.16,13.7,30.28-2.72,37.12-37.66,5.97-47.64-10.87-3.48-23.3-2.96-34.42-5.56-37.03-8.66-57.53-29.11-52.28-69.12,3.63-27.79,39.36-48.64,65.09-51.64h0Z"/>
    <path class="st0" d="M526.25,832.35v174.3h112.73c.16,0,2.4,2.23,2.4,2.4v37.57h-158.31v-211.88c0-.16,2.23-2.4,2.4-2.4h40.78-.01Z"/>
  </g>
  <g>
    <polygon class="st0" points="471.23 89.32 471.23 305.69 319.36 457.55 248.8 386.99 434.27 201.53 434.27 128.28 167.16 395.39 317.93 546.16 526.92 337.18 526.92 32.87 471.23 89.32"/>
    <polygon class="st0" points="554.55 32.87 554.55 335.26 653.33 434.03 765.55 321.82 836.77 393.04 762.86 466.96 729.93 434.03 693.65 470.32 766.18 542.85 912.84 396.19 771.76 255.11 660.72 366.17 602.25 307.71 602.25 163.24 696.67 257.64 736.18 218.13 554.55 32.87"/>
    <polygon class="st0" points="375.8 523.41 336.15 563.05 540.79 767.68 745.06 563.4 666.09 484.43 628.46 522.06 669.45 563.05 540.19 692.32 375.8 523.41"/>
  </g>
</svg>