<?xml version="1.0" encoding="UTF-8"?>
<svg id="Camada_1" xmlns="http://www.w3.org/2000/svg" version="1.1" viewBox="0 0 1080 1080">
  <!-- Generator: Adobe Illustrator 29.7.1, SVG Export Plug-In . SVG Version: 2.1.1 Build 8)  -->
  <defs>
    <style>
      .st0 {
        fill: #cca546;
      }
    </style>
  </defs>
  <g>
    <path class="st0" d="M310.85,812.46v-156.89h72.01c.36,0,5.43.99,6.96,1.23,48.02,7.61,57.55,49.27,54.55,91.89-1.81,25.75-15.39,51.29-40.97,59.72-1.93.64-16.07,4.05-17.03,4.05h-75.52ZM343.63,780.85c1.84.18,3.25,1.06,5.22,1.22,27.65,2.34,60.82-2.04,63.9-35.72,1.9-20.74.24-46.89-21.96-55.39-2.27-.87-10.96-3.77-12.62-3.77h-34.54v93.67h0Z"/>
    <path class="st0" d="M664.14,655.86c16.29-1.91,37.1,1.65,51.06,10.42,1.93,1.21,10.93,8.42,11.25,9.88.32,1.42-.96,1.98-1.71,2.84-1.98,2.27-16.52,17.11-17.71,17.46-2.93.85-4.61-2.88-7.05-4.42-10.18-6.41-23.02-8.71-34.71-5.77-10.65,2.68-20.8,14.05-11.41,23.79,7.47,7.75,29.44,8.52,39.89,11.63,7.51,2.23,22.04,10.36,26.89,16.43,10.39,13.01,11.42,37.23,1.71,50.9-22.6,31.8-78.94,29.49-107.02,6.41-3.53-2.9-6.52-4.65-3.01-8.73,1.93-2.24,16.46-17.24,17.67-17.51,1.79-.39,3.55,2.9,5.21,4.02,12.06,8.17,25.85,11.34,40.39,10.03,22.17-1.99,27.18-27.57,4.37-34.88-7.96-2.55-17.06-2.17-25.2-4.07-27.11-6.34-42.12-21.31-38.28-50.61,2.66-20.35,28.82-35.61,47.66-37.81h0Z"/>
    <path class="st0" d="M509.89,655.57v127.62h82.54c.12,0,1.76,1.63,1.76,1.76v27.51h-115.91v-155.13c0-.12,1.63-1.76,1.76-1.76h29.86-.01Z"/>
    <path class="st0" d="M329.58,865.74c.24-.98,1.69-2.31,2.91-.57,19.87,28.5,40.33,56.61,59.78,85.41,3,3.33,2.53.04,4-1.73,21.41-25.66,38.04-57.25,59.24-82.46,1.15-1.36,1.93-2.82,4.03-2.4l.03,129.4c-.74,5.39-13.36,1.96-17.59,2.9v-81.96c-2.84-.65-1.87.54-2.58,1.52-12.17,16.77-23.33,34.37-35.55,51.09-1.28,1.76-8.56,11.59-9.36,11.76-1.43.31-3.13-1.88-4.03-2.9-11.5-13.03-22.77-32.85-33.43-47.36-2.85-3.88-6.46-8.64-9.89-11.78v79.62c0,.73-13.49.2-14.67.03-1.01-.14-2.9-1.05-2.9-1.79v-128.79h0Z"/>
    <path class="st0" d="M228.59,865.43c52.99-5.54,91.48,53.79,63.75,100.04-26.63,44.41-92.31,42.66-116.36-3.51-21.41-41.1,7.25-91.79,52.61-96.53h0ZM226.24,882.98c-23.21,3.22-42.14,30.07-39.43,52.94,3.62,30.57,34.44,53.07,64.36,42.23,40.38-14.63,43.08-72.14,4.7-91.38-8.99-4.51-19.68-5.17-29.62-3.79h0Z"/>
    <path class="st0" d="M960.36,865.43c56.04-5.92,94.37,59.83,60.02,105.68-28.14,37.56-86.43,35.08-110.29-5.64-24.4-41.64,2.42-94.99,50.27-100.04h0ZM934.02,967.89c25.14,24.44,68.7,12.35,78.76-20.76,11.86-39.05-23.53-76.44-62.98-61.81-30.09,11.15-39.54,50.44-21.27,75.77.96,1.32,4.61,5.95,5.49,6.8Z"/>
    <path class="st0" d="M650.98,866.32c1.28.12,5,.91,6.96,1.23,25.43,4.24,36.78,20.76,34.64,46.23-1.17,13.9-7.41,20.99-17.69,29.19-1.23.98-2.67-.12-2.29,2.38l30.48,50.93h-19.32c-8.45-13.69-17.59-26.98-26.14-40.59-1.09-1.74-2.44-6.06-3.66-6.88-4.02-2.71-18.13,1.95-23.47.64v46.83h-17.56v-129.96c12.29.83,25.93-1.12,38.05,0h0ZM630.49,931.89h25.17c.32,0,5.28-1.7,6.12-2.08,15.59-7.14,18.04-31.7,3.79-41.78-.92-.65-7.14-4.14-7.57-4.14h-27.51v48h0Z"/>
    <path class="st0" d="M580.14,866.32c.52.52.28,12.89.03,14.67-.14,1.01-1.05,2.9-1.79,2.9h-64.98v38.64h57.96c.74,0,1.65,1.88,1.79,2.9.16,1.17.7,14.67-.03,14.67h-59.71v38.64h69.08v17.56h-86.64v-129.96h84.3v-.02Z"/>
    <path class="st0" d="M139.9,892.08c-.35.46-7.98-4.67-9.34-5.29-44.93-20.7-83.04,29.97-60.7,71.24,10.85,20.05,36.13,27.47,57.18,20.12,2.46-.86,14.19-7.85,15.2-6.46.1.14.08,2.32.55,3.53,1.57,4.07,4.87,8.01,4.07,12.8-8.09,2.96-16.42,8.38-25.17,9.37-59.13,6.73-96.22-50.17-67.48-101.44,18.23-32.53,61.52-39.16,92.18-20.28l-6.49,16.41h0Z"/>
    <path class="st0" d="M817.82,890.91c-1.04,1.44-10.81-4.46-12.87-5.28-27.58-10.91-55.8,5.2-62.7,33.32-9.83,40.05,24.85,73.51,64.19,58.33,4.46-1.72,8.16-5.23,12.53-5.58l7.05,15.2c-3.72,1.16-6.86,3.75-10.54,5.28-39.96,16.7-85.13-4.44-92.44-48.06-6.52-38.88,18.46-75.94,59.03-79.02,8.15-.62,36.73,3.53,41.09,10.57,1.25,2.01-3.8,9.13-4.79,11.71-.46,1.22-.45,3.38-.55,3.53h0Z"/>
    <path class="st0" d="M871.68,866.32v129.96c-3.68-.67-16.41,1.71-17.44-1.88.06-42.28-.73-84.83.4-126.97,1.6-2.39,13.52-.52,17.04-1.11h0Z"/>
    <path class="st0" d="M563.75,835.88l-20.44,22.3c-1.34,1.54-10.77,1.52-11.18,1.11-1.77-1.77,2.16-4.69,2.89-5.89,1.46-2.41,9.55-17.53,10.57-17.53h18.16Z"/>
  </g>
  <g>
    <polygon class="st0" points="488.49 111.54 488.49 269.96 377.3 381.16 325.64 329.5 461.43 193.71 461.43 140.08 265.86 335.65 376.26 446.04 529.27 293.03 529.27 70.21 488.49 111.54"/>
    <polygon class="st0" points="549.5 70.21 549.5 291.61 621.82 363.94 703.99 281.77 756.14 333.92 702.02 388.04 677.91 363.94 651.34 390.5 704.45 443.61 811.83 336.23 708.54 232.94 627.24 314.24 584.43 271.44 584.43 165.66 653.56 234.79 682.49 205.86 549.5 70.21"/>
    <polygon class="st0" points="418.63 429.37 389.6 458.4 539.42 608.22 688.99 458.65 631.17 400.84 603.62 428.39 633.63 458.4 538.99 553.05 418.63 429.37"/>
  </g>
</svg>